<?xml version="1.0" encoding="UTF-8" ?>
<svg version="1.1" width="16" height="16" xmlns="http://www.w3.org/2000/svg" shape-rendering="crispEdges">
<rect x="5" y="3" width="2" height="1" fill="#7C3F58" />
<rect x="9" y="3" width="2" height="1" fill="#7C3F58" />
<rect x="4" y="4" width="1" height="6" fill="#7C3F58" />
<rect x="5" y="4" width="2" height="1" fill="#FFF6D3" />
<rect x="7" y="4" width="2" height="1" fill="#7C3F58" />
<rect x="9" y="4" width="2" height="1" fill="#FFF6D3" />
<rect x="11" y="4" width="1" height="6" fill="#7C3F58" />
<rect x="5" y="5" width="2" height="2" fill="#F9A875" />
<rect x="7" y="5" width="2" height="1" fill="#FFF6D3" />
<rect x="9" y="5" width="2" height="2" fill="#F9A875" />
<rect x="7" y="6" width="2" height="2" fill="#F9A875" />
<rect x="5" y="7" width="1" height="2" fill="#EB6B6F" />
<rect x="6" y="7" width="1" height="1" fill="#F9A875" />
<rect x="9" y="7" width="1" height="1" fill="#F9A875" />
<rect x="10" y="7" width="1" height="2" fill="#EB6B6F" />
<rect x="2" y="8" width="1" height="1" fill="#7C3F58" />
<rect x="6" y="8" width="4" height="1" fill="#EB6B6F" />
<rect x="13" y="8" width="1" height="1" fill="#7C3F58" />
<rect x="1" y="9" width="1" height="1" fill="#7C3F58" />
<rect x="2" y="9" width="1" height="1" fill="#EB6B6F" />
<rect x="3" y="9" width="1" height="1" fill="#7C3F58" />
<rect x="5" y="9" width="6" height="1" fill="#7C3F58" />
<rect x="12" y="9" width="1" height="1" fill="#7C3F58" />
<rect x="13" y="9" width="1" height="1" fill="#EB6B6F" />
<rect x="14" y="9" width="1" height="1" fill="#7C3F58" />
<rect x="2" y="10" width="1" height="1" fill="#7C3F58" />
<rect x="3" y="10" width="3" height="1" fill="#EB6B6F" />
<rect x="6" y="10" width="4" height="1" fill="#F9A875" />
<rect x="10" y="10" width="3" height="1" fill="#EB6B6F" />
<rect x="13" y="10" width="1" height="1" fill="#7C3F58" />
<rect x="3" y="11" width="10" height="1" fill="#7C3F58" />
</svg>